<svg id="图层_1" data-name="图层 1" xmlns="http://www.w3.org/2000/svg" viewBox="0 0 479.9 479.8"><defs><style>.cls-1{fill:#fff;}</style></defs><title>favicon</title><path class="cls-1" d="M481,481H1.1V1.16H481ZM366.2,245.09a36,36,0,0,1-1.84,5.47c-6.77,12.51-12.84,25.49-20.65,37.32-9.8,14.84-23.44,26.31-40.1,32.54a204,204,0,0,1-90.1,12.4c-16.81-1.49-33.45-5.13-50.13-8-3.42-.58-6.66-2.29-10.08-2.73-3.59-.46-8.64-.38-9.11,3.73-.46,4,.79,9.88,3.56,12,4.62,3.62,10.86,5.71,16.74,7.07,11.13,2.57,22.59,3.67,33.71,6.27,21.49,5,43,2.66,64.59,1.34a90.39,90.39,0,0,0,16.1-2.84c11.39-2.8,21.54-8.39,31.8-14,9.42-5.12,18.33-10.61,25.49-18.7,3.74-4.22,7.86-8.11,11.47-12.43,10.37-12.36,20.23-25,24.77-41,1.51-5.26,3.64-10.33,5.49-15.49l1.77,0c1.11,3,2.59,6,3.27,9.12,1.49,6.81,2.46,13.72,3.88,20.54.88,4.18,3.58,5.09,7.56,3.69s4.1-4.66,3.9-7.65c-.45-6.62-.86-13.34-2.37-19.77-3.8-16.25-17.42-27.69-34.26-22-8.75,3-16.49,9-24.52,13.92a30,30,0,0,0-7.88,6.63c-2.78,3.51-1.83,8.36,1.56,9.28,3.7,1,8.21,2.61,11.32,1.36,3.53-1.43,6.54-5.36,8.63-8.88C353.87,249.2,359.7,244.81,366.2,245.09ZM87.89,173.24c-.68,6.13.91,9.08,4.66,9.42,10.67,1,21.31,2.16,32,3q24.06,1.88,48.16,3.31c3.26.2,6.57-.44,10.87-.78-.78-2.72-.72-5.72-2.18-7.06-3.93-3.62-8.06-7.71-12.89-9.52-16.56-6.19-34-8.82-51.55-10.54-8.42-.83-16.9-1-25.34-1.68-4.44-.36-8.76,2.09-9.29,6.09C81.75,169.65,82.56,173.23,87.89,173.24ZM388.48,163c-15.77,2.11-31.56,4.13-47.31,6.36-14.31,2-28.57,4.5-42.89,6.38-6.31.83-11.16,2.08-11.84,9.88-.23,2.68-2.58,5.69.4,7.45,2.22,1.32,5.52,1.45,8.24,1.17,6.76-.68,13.46-2,20.2-2.9,22.21-3,44.43-6,66.63-9.05a104.9,104.9,0,0,0,12.65-2.54c3-.8,4-2.67,1.86-5.62a8.49,8.49,0,0,1-1.66-4.75C394.87,165.25,392.81,163,388.48,163Zm-113.77,7.32a23.6,23.6,0,0,0,3.64-3.44c3.94-5.28,7-11.45,11.64-15.93,11.5-11,23.67-21.34,35.73-31.76,2.12-1.84,2.45-3.2,1-5.42-2.4-3.71-5.35-4-9.12-.92-9.85,8.13-19.83,16.12-29.53,24.43-7.86,6.72-14.94,14.21-19.43,23.74C266.28,166.08,268.41,170.19,274.71,170.32Zm-82.82-3.2c5.31.09,7.18-2.15,5.2-5.43A161.54,161.54,0,0,0,182.82,141c-9.9-11.78-24.25-17-37.45-23.87-3.6-1.86-5.13,1-5.28,3.71-.18,3.49.57,6.7,4.91,8.13,18.13,6,31,18.49,41.28,34.11C187.72,165.23,190.76,166.33,191.89,167.12Z" transform="translate(-1.1 -1.16)"/><path d="M366.2,245.09c-6.5-.28-12.33,4.11-15.43,9.35-2.09,3.52-5.1,7.45-8.63,8.88-3.11,1.25-7.62-.34-11.32-1.36-3.39-.92-4.34-5.77-1.56-9.28a30,30,0,0,1,7.88-6.63c8-4.92,15.77-11,24.52-13.92,16.84-5.69,30.46,5.75,34.26,22,1.51,6.43,1.92,13.15,2.37,19.77.2,3,0,6.27-3.9,7.65s-6.68.49-7.56-3.69c-1.42-6.82-2.39-13.73-3.88-20.54-.68-3.13-2.16-6.08-3.27-9.12l-1.77,0c-1.85,5.16-4,10.23-5.49,15.49-4.54,15.94-14.4,28.62-24.77,41-3.61,4.32-7.73,8.21-11.47,12.43-7.16,8.09-16.07,13.58-25.49,18.7-10.26,5.57-20.41,11.16-31.8,14a90.39,90.39,0,0,1-16.1,2.84c-21.55,1.32-43.1,3.69-64.59-1.34-11.12-2.6-22.58-3.7-33.71-6.27-5.88-1.36-12.12-3.45-16.74-7.07-2.77-2.17-4-8.09-3.56-12,.47-4.11,5.52-4.19,9.11-3.73,3.42.44,6.66,2.15,10.08,2.73,16.68,2.84,33.32,6.48,50.13,8a204,204,0,0,0,90.1-12.4c16.66-6.23,30.3-17.7,40.1-32.54,7.81-11.83,13.88-24.81,20.65-37.32A36,36,0,0,0,366.2,245.09Z" transform="translate(-1.1 -1.16)"/><path d="M87.89,173.24c-5.33,0-6.14-3.59-5.58-7.78.53-4,4.85-6.45,9.29-6.09,8.44.68,16.92.85,25.34,1.68,17.54,1.72,35,4.35,51.55,10.54,4.83,1.81,9,5.9,12.89,9.52,1.46,1.34,1.4,4.34,2.18,7.06-4.3.34-7.61,1-10.87.78q-24.09-1.45-48.16-3.31c-10.67-.82-21.31-2-32-3C88.8,182.32,87.21,179.37,87.89,173.24Z" transform="translate(-1.1 -1.16)"/><path d="M388.48,163c4.33,0,6.39,2.25,6.28,6.38a8.49,8.49,0,0,0,1.66,4.75c2.11,3,1.13,4.82-1.86,5.62a104.9,104.9,0,0,1-12.65,2.54c-22.2,3.07-44.42,6-66.63,9.05-6.74.92-13.44,2.22-20.2,2.9-2.72.28-6,.15-8.24-1.17-3-1.76-.63-4.77-.4-7.45.68-7.8,5.53-9.05,11.84-9.88,14.32-1.88,28.58-4.35,42.89-6.38C356.92,167.13,372.71,165.11,388.48,163Z" transform="translate(-1.1 -1.16)"/><path d="M274.71,170.32c-6.3-.13-8.43-4.24-6-9.3,4.49-9.53,11.57-17,19.43-23.74,9.7-8.31,19.68-16.3,29.53-24.43,3.77-3.11,6.72-2.79,9.12.92,1.43,2.22,1.1,3.58-1,5.42C313.66,129.61,301.49,139.94,290,151c-4.67,4.48-7.7,10.65-11.64,15.93A23.6,23.6,0,0,1,274.71,170.32Z" transform="translate(-1.1 -1.16)"/><path d="M191.89,167.12c-1.13-.79-4.17-1.89-5.61-4.06C176,147.44,163.13,135,145,129c-4.34-1.43-5.09-4.64-4.91-8.13.15-2.75,1.68-5.57,5.28-3.71,13.2,6.84,27.55,12.09,37.45,23.87a161.54,161.54,0,0,1,14.27,20.71C199.07,165,197.2,167.21,191.89,167.12Z" transform="translate(-1.1 -1.16)"/></svg>